<svg width="514" height="195" viewBox="0 0 514 195" fill="none" xmlns="http://www.w3.org/2000/svg">
<path d="M42.184 0.772331H50.312V60.0363H42.184V0.772331ZM34.44 23.6203H44.296V30.4043H34.44V23.6203ZM28.936 1.79633H36.872V57.2203H28.936V1.79633ZM1.864 7.30033H10.376V41.5403H1.864V7.30033ZM1.864 38.3403H5.96C11.656 38.3403 18.312 38.0203 25.672 36.6123L26.504 43.9083C18.76 45.3163 11.976 45.6363 5.96 45.6363H1.864V38.3403ZM82.274 52.2283H123.362V59.0123H82.274V52.2283ZM82.274 41.8603H90.786V54.5323H82.274V41.8603ZM75.81 31.4923H129.442V38.2763H75.81V31.4923ZM98.274 23.2363H106.722V34.1163H98.274V23.2363ZM98.146 2.43633H105.442V4.22833C105.442 15.4283 96.866 24.4523 81.826 26.8203L78.562 20.1643C91.81 18.3083 98.146 11.1403 98.146 4.22833V2.43633ZM99.554 2.43633H106.85V4.22833C106.85 11.4603 113.058 18.3723 126.434 20.1643L123.17 26.8203C108.13 24.3243 99.554 15.7483 99.554 4.22833V2.43633ZM172.829 0.772331H181.341V43.8443H172.829V0.772331ZM178.909 17.7323H189.213V24.7083H178.909V17.7323ZM143.133 52.2283H183.453V59.0123H143.133V52.2283ZM143.133 39.3643H151.645V55.2363H143.133V39.3643ZM151.197 4.54833C160.285 4.54833 167.325 10.8843 167.325 19.6523C167.325 28.3563 160.285 34.6923 151.197 34.6923C142.109 34.6923 135.069 28.3563 135.069 19.6523C135.069 10.8843 142.109 4.54833 151.197 4.54833ZM151.197 11.9723C146.845 11.9723 143.389 14.7883 143.389 19.6523C143.389 24.4523 146.845 27.2683 151.197 27.2683C155.613 27.2683 159.005 24.4523 159.005 19.6523C159.005 14.7883 155.613 11.9723 151.197 11.9723ZM217.24 22.5963H226.968V29.4443H217.24V22.5963ZM236.376 0.772331H244.504V60.0363H236.376V0.772331ZM224.28 1.66833H232.28V57.3483H224.28V1.66833ZM206.872 4.93233C214.744 4.93233 219.8 13.0603 219.8 26.4363C219.8 39.8763 214.744 48.0043 206.872 48.0043C199.064 48.0043 194.072 39.8763 194.072 26.4363C194.072 13.0603 199.064 4.93233 206.872 4.93233ZM206.872 12.9323C203.672 12.9323 201.816 17.4123 201.816 26.4363C201.816 35.5243 203.672 39.9403 206.872 39.9403C210.2 39.9403 212.056 35.5243 212.056 26.4363C212.056 17.4123 210.2 12.9323 206.872 12.9323ZM282.994 6.85233H289.97V10.5643C289.97 21.7643 284.658 31.8123 273.33 35.4603L268.914 28.8683C278.834 25.6683 282.994 17.9883 282.994 10.5643V6.85233ZM284.722 6.85233H291.634V10.5643C291.634 17.5403 295.666 24.7723 305.266 27.8443L300.914 34.4363C289.842 30.8523 284.722 21.1883 284.722 10.5643V6.85233ZM271.218 4.22833H303.218V11.0123H271.218V4.22833ZM307.954 0.772331H316.466V36.4843H307.954V0.772331ZM314.098 15.1083H324.338V22.0843H314.098V15.1083ZM276.914 39.0443H316.466V60.0363H307.954V45.8923H276.914V39.0443ZM328.685 30.9803H382.253V37.7643H328.685V30.9803ZM335.149 52.2283H376.237V59.0123H335.149V52.2283ZM335.149 41.7323H343.661V54.4043H335.149V41.7323ZM355.501 2.50033C368.365 2.50033 376.941 7.17233 376.941 14.7243C376.941 22.2763 368.365 26.9483 355.501 26.9483C342.573 26.9483 334.061 22.2763 334.061 14.7243C334.061 7.17233 342.573 2.50033 355.501 2.50033ZM355.501 9.28433C347.501 9.28433 342.829 11.1403 342.829 14.7243C342.829 18.3723 347.501 20.1643 355.501 20.1643C363.501 20.1643 368.173 18.3723 368.173 14.7243C368.173 11.1403 363.501 9.28433 355.501 9.28433ZM434.823 19.2683H450.439V26.1163H434.823V19.2683ZM418.695 5.31633H425.607V13.8923C425.607 28.8043 420.551 42.5643 409.415 48.1323L404.103 41.2843C414.215 36.6123 418.695 25.1563 418.695 13.8923V5.31633ZM420.487 5.31633H427.271V13.8923C427.271 25.1563 431.559 35.9723 441.351 40.3243L436.295 47.1083C425.159 41.7323 420.487 28.6763 420.487 13.8923V5.31633ZM446.215 0.708328H454.663V60.1643H446.215V0.708328ZM495.874 14.4043H507.138V21.3163H495.874V14.4043ZM504.898 0.772331H513.41V35.0123H504.898V0.772331ZM473.922 37.4443H513.41V59.3963H473.922V37.4443ZM505.09 44.1003H482.306V52.6763H505.09V44.1003ZM477.506 6.27633H484.418V9.98833C484.418 21.1883 479.17 31.4283 467.778 35.1403L463.49 28.4203C473.282 25.2203 477.506 17.4763 477.506 9.98833V6.27633ZM479.298 6.27633H486.146V9.98833C486.146 16.9003 490.178 24.1963 499.522 27.3323L495.362 34.0523C484.354 30.4043 479.298 20.5483 479.298 9.98833V6.27633ZM465.794 3.78033H497.666V10.5003H465.794V3.78033ZM34.536 155.004H47.208V168.444H34.536V155.004ZM0.84 147.324H81.192V157.404H0.84V147.324ZM9.768 164.892H71.496V193.884H58.728V174.972H9.768V164.892ZM11.112 107.196H23.688V115.068H58.344V107.196H71.016V141.564H11.112V107.196ZM23.688 124.572V131.58H58.344V124.572H23.688ZM98.6565 150.78H161.153V160.764H98.6565V150.78ZM89.2485 173.34H169.697V183.708H89.2485V173.34ZM98.6565 111.42H160.385V121.692H111.617V153.564H98.6565V111.42ZM107.681 131.004H158.369V140.892H107.681V131.004ZM238.713 104.892H251.481V194.076H238.713V104.892ZM182.265 162.972H190.137C205.881 162.972 218.457 162.396 232.569 159.996L233.817 170.268C219.417 172.86 206.361 173.34 190.137 173.34H182.265V162.972ZM182.169 112.476H224.121V146.844H195.225V166.812H182.265V136.764H211.065V122.652H182.169V112.476ZM298.802 110.076H309.938V116.508C309.938 135.804 296.21 152.892 273.17 157.404L267.698 146.844C287.762 143.388 298.802 129.276 298.802 116.508V110.076ZM301.394 110.076H312.434V116.508C312.434 129.564 323.378 143.388 343.538 146.844L338.066 157.404C315.026 152.892 301.394 136.092 301.394 116.508V110.076ZM265.874 172.668H346.322V183.036H265.874V172.668Z" fill="white"/>
</svg>
